# Blender v2.74 (sub 0) OBJ File: ''
# www.blender.org
mtllib island-cloud-c.mtl
o Mesh06
v 17.086409 -0.894266 0.545248
v -16.318380 3.048065 0.971457
v -15.829252 3.705600 -2.138547
v -14.963987 4.509493 -2.457906
v -13.321959 5.536020 -1.965712
v -13.272020 5.658512 0.958258
v -13.327482 4.962343 2.936401
v -14.778959 3.870272 3.300272
v -16.033976 2.619536 2.472691
v -16.505571 -2.566723 0.973340
v -17.086409 0.340208 -4.376514
v -13.837786 3.879447 -5.317561
v -11.470798 5.913598 -3.638297
v -10.569465 6.625360 1.312341
v -11.282729 4.914547 4.510448
v -12.716494 1.784892 5.735939
v -15.731749 -1.432534 4.399605
v -13.533472 -7.814638 0.812114
v -15.093214 -4.338092 -6.941315
v -12.032701 2.492759 -9.479732
v -8.911105 6.981611 -5.770426
v -7.760280 7.176081 1.832687
v -9.069644 5.086966 6.341060
v -10.556034 0.385117 8.618316
v -12.914618 -5.807493 6.985895
v -7.703051 -10.955312 0.815151
v -6.635077 -9.035145 -8.841802
v -5.323676 -0.822823 -12.533566
v -3.764816 7.258698 -8.023844
v -3.772103 9.399549 2.382901
v -4.322728 6.607533 10.802781
v -6.386162 -2.232423 12.375475
v -6.772048 -8.647951 8.657175
v -0.006454 -10.999685 0.850070
v 1.748208 -8.877156 -8.733839
v 1.697129 -0.714973 -12.538348
v 0.440716 8.515481 -8.135056
v 0.341304 10.999685 2.293759
v 0.583403 6.837600 10.859898
v 1.341693 -2.320391 12.538348
v 0.745216 -8.572489 8.902791
v -15.264318 4.431726 0.890055
v 5.104568 -10.353755 0.775493
v 6.496712 -8.145962 -6.385768
v 6.894218 -0.785498 -9.968675
v 4.794555 6.907578 -6.602287
v 4.023513 8.921453 1.401707
v 5.013426 6.615942 8.489182
v 6.873877 -1.226577 11.002831
v 6.015342 -7.832719 7.747843
v 8.792397 -9.527361 0.715468
v 10.122283 -7.241702 -4.175443
v 10.800139 -1.106205 -7.222487
v 8.922568 6.141117 -4.129899
v 7.861075 7.284743 0.934424
v 9.536704 5.693863 6.098473
v 10.837790 -0.861714 8.171336
v 10.129806 -7.049896 6.241320
v 12.933233 -7.860050 0.672200
v 13.304243 -6.201189 -3.055423
v 13.687857 -1.270635 -5.295180
v 13.312002 4.071888 -3.011463
v 12.532003 5.591576 0.568007
v 13.401876 4.181937 4.091344
v 13.807745 -0.931865 6.238729
v 13.667845 -5.781472 4.771554
v 16.309858 -4.638395 0.674926
v 16.475431 -3.712400 -1.390757
v 16.614302 -1.155355 -3.020077
v 16.387938 2.024203 -1.624808
v 16.078550 3.051331 0.461478
v 16.530264 2.072859 2.425764
v 16.731825 -0.973795 3.940598
v 16.525412 -3.486996 2.811367
vt 0.540609 0.478279
vt 0.710632 0.473112
vt 0.668582 0.555405
vt 0.552465 0.620313
vt 0.408080 0.564729
vt 0.361438 0.481616
vt 0.405871 0.403363
vt 0.544220 0.343015
vt 0.658346 0.388001
vt 0.638414 0.461299
vt 0.668273 0.585195
vt 0.515449 0.674351
vt 0.383444 0.461224
vt 0.414805 0.037251
vt 0.402082 0.062546
vt 0.288160 0.095469
vt 0.325649 0.000500
vt 0.421690 0.110549
vt 0.355058 0.164665
vt 0.538175 0.112009
vt 0.552281 0.191015
vt 0.616980 0.110387
vt 0.679686 0.170163
vt 0.274658 0.110387
vt 0.324249 0.067955
vt 0.418947 0.128249
vt 0.276828 0.170163
vt 0.381046 0.031266
vt 0.565052 0.040101
vt 0.618954 0.401493
vt 0.434948 0.324729
vt 0.303005 0.776527
vt 0.145134 0.467647
vt 0.122348 0.148239
vt 0.613197 0.148239
vt 0.303005 0.058768
vt 0.515449 0.000500
vt 0.270119 0.239495
vt 0.573010 0.273138
vt 0.752614 0.234860
vt 0.482512 0.191407
vt 0.268999 0.234860
vt 0.763721 0.122457
vt 0.236279 0.221697
vt 0.467647 0.104365
vt 0.776527 0.058768
vt 0.852238 0.306032
vt 0.467526 0.274811
vt 0.462635 0.344369
vt 0.089710 0.306032
vt 0.180347 0.389940
vt 0.829620 0.389940
vt 0.594930 0.389727
vt 0.930359 0.373630
vt 0.601375 0.313308
vt 0.199949 0.373630
vt 0.892707 0.302027
vt 0.221697 0.122457
vt 0.155117 0.302027
vt 0.847937 0.551107
vt 0.466135 0.499811
vt 0.467533 0.549613
vt 0.096884 0.551107
vt 0.886692 0.512884
vt 0.591378 0.509978
vt 0.175917 0.512884
vt 0.932635 0.517055
vt 0.605370 0.539223
vt 0.189502 0.517055
vt 0.889280 0.521785
vt 0.145332 0.521785
vt 0.535458 0.053766
vt 0.631476 0.067955
vt 0.538701 0.022952
vt 0.598507 0.031266
vt 0.754395 0.689923
vt 0.469106 0.649226
vt 0.464330 0.701544
vt 0.130088 0.689923
vt 0.813676 0.640163
vt 0.555841 0.617622
vt 0.236979 0.640163
vt 0.838190 0.646561
vt 0.555699 0.700950
vt 0.199567 0.646561
vt 0.855687 0.675851
vt 0.191343 0.675851
vt 0.666340 0.795913
vt 0.471497 0.757035
vt 0.449767 0.815729
vt 0.171151 0.795913
vt 0.778871 0.760841
vt 0.537225 0.729809
vt 0.335474 0.760841
vt 0.742950 0.778794
vt 0.539131 0.816830
vt 0.241439 0.778794
vt 0.820139 0.796132
vt 0.251359 0.796132
vt 0.621721 0.888933
vt 0.473221 0.878087
vt 0.442300 0.900148
vt 0.218401 0.888933
vt 0.684906 0.889160
vt 0.522628 0.866358
vt 0.380030 0.889160
vt 0.662990 0.891788
vt 0.542316 0.903653
vt 0.310096 0.891788
vt 0.762539 0.899563
vt 0.309912 0.899563
vt 0.555405 0.981639
vt 0.473112 0.976799
vt 0.447535 0.985699
vt 0.331418 0.981639
vt 0.591920 0.979082
vt 0.518384 0.970037
vt 0.435271 0.979082
vt 0.596637 0.983242
vt 0.544220 0.989135
vt 0.405871 0.983242
vt 0.658346 0.983100
vt 0.388001 0.983100
vn 0.999800 0.009800 -0.016600
vn 0.979200 -0.203100 -0.001200
vn 0.983400 -0.170700 -0.061900
vn 0.991300 0.001000 -0.131300
vn 0.978800 0.199200 -0.047200
vn 0.968400 0.246600 -0.037700
vn 0.980800 0.194500 -0.016800
vn 0.994600 -0.008800 0.103700
vn 0.984400 -0.168200 0.051200
vn -0.920400 0.385800 -0.063200
vn -0.991500 0.033100 0.125600
vn -0.698100 0.590500 -0.405000
vn -0.721100 0.549800 -0.421700
vn -0.440800 0.847200 -0.296600
vn -0.449800 0.818500 -0.357500
vn -0.332700 0.942400 -0.033800
vn -0.274500 0.957600 -0.087700
vn -0.223300 0.921400 0.318000
vn -0.355400 0.854900 0.378100
vn -0.269300 0.607000 0.747700
vn -0.518300 0.507100 0.688700
vn -0.700100 0.263400 0.663700
vn -0.612400 0.264500 0.745000
vn -0.980200 0.032700 0.195100
vn -0.977000 0.027700 0.211500
vn -0.932900 -0.349000 -0.088400
vn -0.869800 -0.491200 -0.045300
vn -0.706200 0.520700 -0.479700
vn -0.723200 0.068600 -0.687200
vn -0.533400 0.813100 -0.233100
vn -0.502700 0.731000 -0.461500
vn -0.171700 0.979100 -0.109500
vn -0.362700 0.931400 0.031100
vn -0.373500 0.850000 0.371400
vn -0.242100 0.905200 0.349200
vn -0.550300 0.510800 0.660500
vn -0.575900 0.496600 0.649400
vn -0.530800 0.151100 0.833900
vn -0.764100 0.124200 0.633000
vn -0.813800 -0.471400 0.339800
vn -0.874400 -0.428800 0.227100
vn -0.512900 -0.817100 -0.263200
vn -0.462300 -0.858500 -0.221800
vn -0.460100 -0.120800 -0.879600
vn -0.377200 -0.329000 -0.865700
vn -0.308900 0.724200 -0.616500
vn -0.139700 0.502900 -0.853000
vn -0.491800 0.869200 0.052200
vn -0.139600 0.969900 -0.199600
vn -0.495300 0.834100 0.242700
vn -0.497700 0.832500 0.243500
vn -0.386600 0.498100 0.776100
vn -0.703600 0.280400 0.653000
vn -0.315000 -0.127900 0.940400
vn -0.736100 -0.305700 0.603900
vn -0.450000 -0.835000 0.316600
vn -0.466400 -0.832100 0.300200
vn 0.021000 -0.981000 -0.192700
vn -0.004600 -0.976200 -0.217000
vn 0.005700 -0.410800 -0.911700
vn 0.019600 -0.422300 -0.906200
vn -0.173300 0.505200 -0.845400
vn -0.007200 0.429700 -0.902900
vn -0.359600 0.913900 -0.188300
vn -0.284500 0.932000 -0.224700
vn -0.048100 0.949000 0.311500
vn -0.320900 0.848300 0.421200
vn -0.019300 0.178900 0.983700
vn -0.018700 0.179400 0.983600
vn -0.019700 0.178700 0.983700
vn -0.019800 0.178700 0.983700
vn -0.023600 -0.500500 0.865400
vn -0.023300 -0.500300 0.865600
vn -0.023600 -0.500600 0.865400
vn -0.023900 -0.500800 0.865200
vn -0.006800 -0.959100 0.283000
vn 0.000200 -0.957500 0.288600
vn -0.523800 0.851400 -0.026900
vn -0.523500 0.851600 -0.027200
vn -0.523900 0.851300 -0.026800
vn -0.524100 0.851200 -0.026700
vn -0.527200 0.798000 0.292100
vn -0.511200 0.815100 0.272500
vn -0.795400 0.606100 0.003000
vn -0.688800 0.723500 -0.045000
vn -0.765700 0.565500 0.306500
vn -0.753200 0.590800 0.289300
vn 0.231500 -0.957900 -0.169800
vn 0.116800 -0.955200 -0.271800
vn 0.405000 -0.384200 -0.829700
vn 0.454300 -0.409600 -0.791100
vn 0.437700 0.435000 -0.786900
vn 0.399200 0.456800 -0.794900
vn 0.443300 0.872900 -0.203700
vn 0.397700 0.898100 -0.187700
vn 0.265700 0.870000 0.415200
vn 0.517800 0.832200 0.198400
vn 0.226600 0.193700 0.954500
vn 0.453000 0.367800 0.812100
vn 0.251800 -0.504300 0.826000
vn 0.320400 -0.451900 0.832600
vn 0.124500 -0.953200 0.275700
vn 0.198500 -0.929700 0.310200
vn 0.355900 -0.910300 -0.211400
vn 0.197400 -0.907600 -0.370500
vn 0.505000 -0.399700 -0.765000
vn 0.546500 -0.420200 -0.724500
vn 0.517900 0.457600 -0.722800
vn 0.539300 0.444800 -0.715100
vn 0.364800 0.910700 -0.194000
vn 0.270800 0.949600 -0.157700
vn 0.319600 0.913300 0.252500
vn 0.403200 0.903200 0.147400
vn 0.517200 0.370000 0.771700
vn 0.492500 0.349700 0.796900
vn 0.381300 -0.448000 0.808600
vn 0.572200 -0.303100 0.762000
vn 0.212800 -0.927400 0.307500
vn 0.292100 -0.897100 0.331500
vn 0.390400 -0.870200 -0.300500
vn 0.346400 -0.869400 -0.352400
vn 0.483600 -0.431600 -0.761500
vn 0.418200 -0.402500 -0.814300
vn 0.412600 0.445900 -0.794300
vn 0.531200 0.364300 -0.764900
vn 0.327400 0.934100 -0.142300
vn 0.465000 0.846800 -0.258200
vn 0.422500 0.895700 0.138900
vn 0.346700 0.897300 0.273400
vn 0.516800 0.349700 0.781500
vn 0.537300 0.362400 0.761600
vn 0.457700 -0.312000 0.832500
vn 0.522200 -0.260700 0.812000
vn 0.358100 -0.881300 0.308400
vn 0.439800 -0.830300 0.342200
vn 0.674600 -0.697000 -0.243000
vn 0.666700 -0.698600 -0.259700
vn 0.578300 -0.374300 -0.724900
vn 0.660200 -0.428800 -0.616700
vn 0.570700 0.356400 -0.739800
vn 0.562300 0.365500 -0.741800
vn 0.564400 0.796900 -0.215400
vn 0.615300 0.739500 -0.272800
vn 0.609100 0.776700 0.160400
vn 0.567600 0.781600 0.258800
vn 0.581100 0.353900 0.732900
vn 0.621500 0.381400 0.684300
vn 0.670200 -0.232600 0.704800
vn 0.569400 -0.375400 0.731300
vn 0.670700 -0.703100 0.236300
vn 0.710000 -0.647400 0.277200
usemtl cloud
s 1
f 1/1/1 67/2/2 68/3/3
f 1/1/1 68/3/3 69/4/4
f 1/1/1 69/4/4 70/5/5
f 1/1/1 70/5/5 71/6/6
f 1/1/1 71/6/6 72/7/7
f 1/1/1 72/7/7 73/8/8
f 1/1/1 73/8/8 74/9/9
f 1/1/1 74/9/9 67/2/2
f 2/10/10 3/11/10 11/12/10
f 11/12/11 10/13/11 2/10/11
f 3/14/12 4/15/12 12/16/12
f 12/16/13 11/17/13 3/14/13
f 4/15/14 5/18/14 13/19/14
f 13/19/15 12/16/15 4/15/15
f 5/18/16 6/20/16 14/21/16
f 14/21/17 13/19/17 5/18/17
f 6/20/18 7/22/18 15/23/18
f 15/23/19 14/21/19 6/20/19
f 7/24/20 8/25/20 16/26/20
f 16/26/21 15/27/21 7/24/21
f 8/25/22 9/28/22 17/29/22
f 17/29/23 16/26/23 8/25/23
f 9/30/24 2/10/24 10/13/24
f 10/13/25 17/31/25 9/30/25
f 10/13/26 11/12/26 19/32/26
f 19/32/27 18/33/27 10/13/27
f 11/17/28 12/16/28 20/34/28
f 20/35/29 19/36/29 11/37/29
f 12/16/30 13/19/30 21/38/30
f 21/38/31 20/34/31 12/16/31
f 13/19/32 14/21/32 22/39/32
f 22/39/33 21/38/33 13/19/33
f 14/21/34 15/23/34 23/40/34
f 23/40/35 22/39/35 14/21/35
f 15/27/36 16/26/36 24/41/36
f 24/41/37 23/42/37 15/27/37
f 16/26/38 17/29/38 25/43/38
f 25/43/39 24/41/39 16/26/39
f 17/31/40 10/13/40 18/33/40
f 18/33/41 25/44/41 17/31/41
f 18/45/42 19/46/42 27/47/42
f 27/47/43 26/48/43 18/45/43
f 19/36/44 20/35/44 28/49/44
f 28/49/45 27/50/45 19/36/45
f 20/34/46 21/38/46 29/51/46
f 29/52/47 28/49/47 20/35/47
f 21/38/48 22/39/48 30/53/48
f 30/53/49 29/51/49 21/38/49
f 22/39/50 23/40/50 31/54/50
f 31/54/51 30/53/51 22/39/51
f 23/42/52 24/41/52 32/55/52
f 32/55/53 31/56/53 23/42/53
f 24/41/54 25/43/54 33/57/54
f 33/57/55 32/55/55 24/41/55
f 25/58/56 18/45/56 26/48/56
f 26/48/57 33/59/57 25/58/57
f 26/48/58 27/47/58 35/60/58
f 35/60/59 34/61/59 26/48/59
f 27/50/60 28/49/60 36/62/60
f 36/62/61 35/63/61 27/50/61
f 28/49/62 29/52/62 37/64/62
f 37/64/63 36/62/63 28/49/63
f 29/51/64 30/53/64 38/65/64
f 38/65/65 37/66/65 29/51/65
f 30/53/66 31/54/66 39/67/66
f 39/67/67 38/65/67 30/53/67
f 31/56/68 32/55/69 40/68/70
f 40/68/70 39/69/71 31/56/68
f 32/55/72 33/57/73 41/70/74
f 41/70/74 40/68/75 32/55/72
f 33/59/76 26/48/76 34/61/76
f 34/61/77 41/71/77 33/59/77
f 4/15/78 42/72/79 6/20/80
f 6/20/80 5/18/81 4/15/78
f 42/72/82 8/73/82 7/22/82
f 7/22/83 6/20/83 42/72/83
f 3/14/84 2/74/84 42/72/84
f 42/72/85 4/15/85 3/14/85
f 2/74/86 9/75/86 8/73/86
f 8/73/87 42/72/87 2/74/87
f 34/61/88 35/60/88 44/76/88
f 44/76/89 43/77/89 34/61/89
f 35/63/90 36/62/90 45/78/90
f 45/78/91 44/79/91 35/63/91
f 36/62/92 37/64/92 46/80/92
f 46/80/93 45/78/93 36/62/93
f 37/66/94 38/65/94 47/81/94
f 47/81/95 46/82/95 37/66/95
f 38/65/96 39/67/96 48/83/96
f 48/83/97 47/81/97 38/65/97
f 39/69/98 40/68/98 49/84/98
f 49/84/99 48/85/99 39/69/99
f 40/68/100 41/70/100 50/86/100
f 50/86/101 49/84/101 40/68/101
f 41/71/102 34/61/102 43/77/102
f 43/77/103 50/87/103 41/71/103
f 43/77/104 44/76/104 52/88/104
f 52/88/105 51/89/105 43/77/105
f 44/79/106 45/78/106 53/90/106
f 53/90/107 52/91/107 44/79/107
f 45/78/108 46/80/108 54/92/108
f 54/92/109 53/90/109 45/78/109
f 46/82/110 47/81/110 55/93/110
f 55/93/111 54/94/111 46/82/111
f 47/81/112 48/83/112 56/95/112
f 56/95/113 55/93/113 47/81/113
f 48/85/114 49/84/114 57/96/114
f 57/96/115 56/97/115 48/85/115
f 49/84/116 50/86/116 58/98/116
f 58/98/117 57/96/117 49/84/117
f 50/87/118 43/77/118 51/89/118
f 51/89/119 58/99/119 50/87/119
f 51/89/120 52/88/120 60/100/120
f 60/100/121 59/101/121 51/89/121
f 52/91/122 53/90/122 61/102/122
f 61/102/123 60/103/123 52/91/123
f 53/90/124 54/92/124 62/104/124
f 62/104/125 61/102/125 53/90/125
f 54/94/126 55/93/126 63/105/126
f 63/105/127 62/106/127 54/94/127
f 55/93/128 56/95/128 64/107/128
f 64/107/129 63/105/129 55/93/129
f 56/97/130 57/96/130 65/108/130
f 65/108/131 64/109/131 56/97/131
f 57/96/132 58/98/132 66/110/132
f 66/110/133 65/108/133 57/96/133
f 58/99/134 51/89/134 59/101/134
f 59/101/135 66/111/135 58/99/135
f 59/101/136 60/100/136 68/112/136
f 68/112/137 67/113/137 59/101/137
f 60/103/138 61/102/138 69/114/138
f 69/114/139 68/115/139 60/103/139
f 61/102/140 62/104/140 70/116/140
f 70/116/141 69/114/141 61/102/141
f 62/106/142 63/105/142 71/117/142
f 71/117/143 70/118/143 62/106/143
f 63/105/144 64/107/144 72/119/144
f 72/119/145 71/117/145 63/105/145
f 64/109/146 65/108/146 73/120/146
f 73/120/147 72/121/147 64/109/147
f 65/108/148 66/110/148 74/122/148
f 74/122/149 73/120/149 65/108/149
f 66/111/150 59/101/150 67/113/150
f 67/113/151 74/123/151 66/111/151
